<?xml version="1.0" encoding="utf-8"?>
<!-- Generator: Adobe Illustrator 25.4.1, SVG Export Plug-In . SVG Version: 6.00 Build 0)  -->
<svg version="1.1" id="レイヤー_1" xmlns="http://www.w3.org/2000/svg" xmlns:xlink="http://www.w3.org/1999/xlink" x="0px"
	 y="0px" viewBox="0 0 120 120" style="enable-background:new 0 0 120 120;" xml:space="preserve">
<style type="text/css">
	.st0{fill:#FFFFFF;}
</style>
<g>
	<path class="st0" d="M99.4,26.56c0.48,0.47,0.48,1.22,0.01,1.7l-4.23,4.26l-0.58-0.57l1.85-1.87l-3.96-3.93l-1.85,1.87l-0.58-0.57
		l4.23-4.26c0.47-0.48,1.22-0.48,1.7-0.01L99.4,26.56z M97.03,29.5l1.8-1.82c0.15-0.15,0.15-0.4,0-0.55l-3.41-3.38
		c-0.15-0.15-0.4-0.15-0.55,0l-1.8,1.82L97.03,29.5z"/>
	<path class="st0" d="M102.98,36.85c-0.54,0.38-1.29,0.25-1.67-0.31l-0.62-0.9l-0.92,3.38l-0.61-0.88l0.93-3.37l-1.5-2.17
		c-0.06-0.08-0.12-0.21-0.19-0.34l-2.24,1.54l-0.46-0.67l5.91-4.08l3.41,4.93c0.38,0.55,0.24,1.29-0.31,1.67L102.98,36.85z
		 M101.98,36.08c0.12,0.17,0.36,0.22,0.53,0.1l1.74-1.2c0.17-0.12,0.22-0.36,0.1-0.53l-2.72-3.95c-0.12-0.17-0.37-0.22-0.54-0.1
		l-1.74,1.2c-0.17,0.12-0.21,0.36-0.09,0.54L101.98,36.08z"/>
	<path class="st0" d="M106.45,36.55l0.38,0.72l-6.37,3.35l-0.38-0.72L106.45,36.55z"/>
	<path class="st0" d="M109,46.26l-0.29-0.76l0.26-0.1c0.2-0.07,0.3-0.31,0.23-0.5l-1.7-4.49c-0.07-0.2-0.31-0.3-0.5-0.23l-1.51,0.57
		c-0.2,0.07-0.29,0.3-0.22,0.5l1.7,4.49c0.24,0.63-0.08,1.31-0.7,1.55l-1.51,0.57c-0.63,0.24-1.31-0.07-1.55-0.7l-1.7-4.49
		c-0.24-0.63,0.07-1.31,0.7-1.55l0.26-0.1l0.29,0.76l-0.26,0.1c-0.2,0.07-0.3,0.31-0.23,0.5l1.7,4.49c0.07,0.2,0.31,0.3,0.5,0.23
		l1.51-0.57c0.2-0.07,0.29-0.3,0.22-0.5l-1.7-4.49c-0.24-0.63,0.08-1.31,0.7-1.55l1.51-0.57c0.63-0.24,1.31,0.07,1.55,0.7l1.7,4.49
		c0.24,0.63-0.07,1.31-0.7,1.55L109,46.26z"/>
	<path class="st0" d="M111.26,54.38l-1-5.67l-2.34,0.41l0.81,4.56l-0.81,0.14l-0.8-4.56l-2.34,0.41l1,5.67l-0.8,0.14l-1.14-6.47
		l7.09-1.25l1.14,6.47L111.26,54.38z"/>
	<path class="st0" d="M111.43,60.55c0.02-0.21-0.15-0.4-0.36-0.42l-4.78-0.37c-0.21-0.02-0.4,0.15-0.42,0.36l-0.46,5.96l-0.81-0.06
		l0.46-5.96c0.05-0.67,0.62-1.16,1.29-1.1l4.78,0.37c0.67,0.05,1.16,0.62,1.1,1.29l-0.46,5.96l-0.81-0.06L111.43,60.55z"/>
	<path class="st0" d="M109.79,74.44c-0.18,0.65-0.83,1.01-1.48,0.83l-4.62-1.3c-0.65-0.18-1.01-0.83-0.83-1.48l1.3-4.62
		c0.18-0.65,0.83-1.01,1.48-0.83l4.62,1.3c0.65,0.18,1.01,0.83,0.83,1.48L109.79,74.44z M103.64,72.71
		c-0.06,0.2,0.07,0.42,0.27,0.48l4.62,1.3c0.2,0.06,0.42-0.07,0.48-0.27l1.3-4.62c0.06-0.2-0.07-0.42-0.27-0.48l-4.62-1.3
		c-0.2-0.06-0.42,0.07-0.48,0.27L103.64,72.71z"/>
	<path class="st0" d="M108.69,77.56l-0.36,0.73l-5.73-2.85l-2.85,5.72l-0.73-0.36l3.21-6.45L108.69,77.56z"/>
	<path class="st0" d="M101.01,90.13c-0.4,0.54-1.15,0.64-1.68,0.24l-3.84-2.89c-0.54-0.4-0.64-1.15-0.24-1.68l2.89-3.84
		c0.4-0.54,1.15-0.64,1.68-0.24l3.84,2.89c0.54,0.4,0.64,1.15,0.24,1.68L101.01,90.13z M95.91,86.29c-0.13,0.17-0.09,0.42,0.08,0.55
		l3.84,2.89c0.17,0.13,0.42,0.09,0.55-0.08l2.89-3.84c0.13-0.17,0.09-0.42-0.08-0.55l-3.84-2.89c-0.17-0.13-0.42-0.09-0.55,0.08
		L95.91,86.29z"/>
	<path class="st0" d="M91.31,95.07c-0.45-0.49-0.42-1.24,0.07-1.7l0.81-0.74l-3.48-0.45l0.79-0.72l3.47,0.45l1.95-1.78
		c0.07-0.07,0.19-0.15,0.31-0.23l-1.84-2l0.6-0.55l4.86,5.3l-4.42,4.06c-0.49,0.45-1.25,0.41-1.7-0.07L91.31,95.07z M91.94,93.98
		c-0.15,0.14-0.17,0.38-0.02,0.54l1.43,1.55c0.14,0.16,0.39,0.17,0.54,0.03l3.54-3.25c0.16-0.14,0.17-0.4,0.02-0.55l-1.43-1.55
		c-0.14-0.16-0.39-0.16-0.54-0.02L91.94,93.98z"/>
	<path class="st0" d="M79.63,105.68l-0.94-7.61l0.63-0.32l4.79,4.46l-0.8-6.5l0.62-0.32l5.61,5.22l-0.77,0.39l-4.51-4.19
		c0.23,1.87,0.52,4.21,0.76,6.11l-0.87,0.45l-4.51-4.19c0.24,1.86,0.52,4.21,0.77,6.1L79.63,105.68z"/>
	<path class="st0" d="M71.11,107.14l5.55-1.53l-0.63-2.29l-4.47,1.23l-0.22-0.79l4.46-1.23l-0.63-2.29l-5.55,1.53l-0.22-0.78
		l6.34-1.74l1.91,6.94l-6.34,1.74L71.11,107.14z"/>
	<path class="st0" d="M62.26,105.61c-0.26-0.19-0.46-0.5-0.49-0.84l-0.18-1.67c-0.07-0.67,0.4-1.25,1.07-1.32l5.97-0.63l0.76,7.16
		l-5.66,0.6c-0.67,0.07-1.25-0.4-1.32-1.07l-0.16-1.52c-0.02-0.19,0.01-0.37,0.07-0.54L62.26,105.61z M62.58,104.68
		c0.02,0.21,0.22,0.37,0.43,0.35l4.78-0.51c0.21-0.02,0.37-0.22,0.35-0.43l-0.18-1.67c-0.02-0.21-0.22-0.37-0.43-0.35l-4.78,0.51
		c-0.21,0.02-0.37,0.22-0.35,0.43L62.58,104.68z M68.11,107.63c0.21-0.02,0.37-0.22,0.35-0.43l-0.16-1.52
		c-0.02-0.21-0.22-0.37-0.43-0.35l-4.47,0.47c-0.21,0.02-0.36,0.22-0.34,0.43l0.16,1.52c0.02,0.21,0.21,0.37,0.42,0.35L68.11,107.63
		z"/>
	<path class="st0" d="M56.12,108.09c0.21,0.02,0.41-0.13,0.43-0.34l0.55-4.77c0.02-0.21-0.13-0.41-0.34-0.43l-5.94-0.68l0.09-0.8
		l5.94,0.68c0.67,0.08,1.13,0.66,1.05,1.33l-0.55,4.77c-0.08,0.67-0.66,1.13-1.33,1.05l-5.94-0.68l0.09-0.8L56.12,108.09z"/>
	<path class="st0" d="M42.03,106.04l-0.78-0.23l1.68-5.76c0.19-0.64,0.84-1,1.49-0.82l4.61,1.34c0.64,0.19,1,0.84,0.82,1.49
		l-1.68,5.76l-0.78-0.23l1.68-5.76c0.06-0.2-0.06-0.42-0.27-0.48l-4.61-1.34c-0.2-0.06-0.42,0.06-0.48,0.27L42.03,106.04z"/>
	<path class="st0" d="M33.58,100.61l0.73,0.36l-0.12,0.25c-0.09,0.19-0.01,0.43,0.18,0.52l4.31,2.11c0.19,0.09,0.43,0.01,0.52-0.18
		l0.71-1.45c0.09-0.19,0.01-0.42-0.18-0.51l-4.31-2.11c-0.6-0.29-0.84-1.01-0.55-1.61l0.71-1.45c0.29-0.6,1-0.85,1.61-0.55
		l4.31,2.11c0.6,0.29,0.85,1,0.55,1.61l-0.12,0.25l-0.73-0.36l0.12-0.25c0.09-0.19,0.01-0.43-0.18-0.52l-4.31-2.11
		c-0.19-0.09-0.43-0.01-0.52,0.18l-0.71,1.45c-0.09,0.19-0.01,0.42,0.18,0.51l4.31,2.11c0.6,0.29,0.84,1.01,0.55,1.61l-0.71,1.45
		c-0.29,0.6-1,0.85-1.61,0.55l-4.31-2.11c-0.6-0.29-0.85-1-0.55-1.61L33.58,100.61z"/>
	<path class="st0" d="M25.68,96.9l0.47-0.66l2.59,1.86l3.72-5.19l0.66,0.47l-3.72,5.19l2.6,1.87l-0.47,0.66L25.68,96.9z"/>
	<path class="st0" d="M20.21,91.56c-0.47-0.48-0.46-1.23,0.01-1.7l3.42-3.37c0.48-0.47,1.23-0.46,1.7,0.01l3.37,3.42
		c0.47,0.48,0.46,1.23-0.01,1.7l-3.42,3.37c-0.48,0.47-1.23,0.46-1.7-0.01L20.21,91.56z M24.77,87.07c-0.15-0.15-0.4-0.15-0.55,0
		l-3.42,3.37c-0.15,0.15-0.15,0.4,0,0.55l3.37,3.42c0.15,0.15,0.4,0.15,0.55,0l3.42-3.37c0.15-0.15,0.15-0.4,0-0.55L24.77,87.07z"/>
	<path class="st0" d="M14.05,83.08l-0.61-0.93l6.02-3.96l0.44,0.68l-5.25,3.45l5.08,0.6l-1.46,4.9l5.25-3.45l0.44,0.68l-6.02,3.96
		l-0.61-0.93l1.33-4.46L14.05,83.08z"/>
	<path class="st0" d="M12.78,80.49l-0.35-0.73l6.48-3.13l0.35,0.73L12.78,80.49z"/>
	<path class="st0" d="M11.47,77.97l-2.31-6.82l1.05-0.36l7.02,4.26l-2.01-5.95l0.77-0.26l2.31,6.82l-1.05,0.36l-7.02-4.26l2.01,5.95
		L11.47,77.97z"/>
	<path class="st0" d="M8.59,62.48l0.8,5.7l2.36-0.33l-0.64-4.58l0.81-0.11l0.64,4.58l2.36-0.33l-0.8-5.7l0.8-0.11l0.91,6.51l-7.13,1
		l-0.91-6.51L8.59,62.48z"/>
	<path class="st0" d="M15.01,49.63l0.71,0.09l-0.94,1.26c0.52,0.29,0.84,0.78,0.77,1.29l-0.61,4.81c-0.08,0.66-0.69,1.13-1.35,1.05
		l-2.13-0.27c-0.24-0.03-0.6-0.41-0.52-1.06c-0.42,0.43-0.76,0.48-1.02,0.44L8.93,57.1c-0.67-0.09-1.14-0.69-1.06-1.35l0.52-4.08
		c0.07-0.56,0.63-1,1.17-1.08l0.55,0.07L10,51.49l-0.34-0.04c-0.21-0.03-0.41,0.12-0.44,0.34L8.7,55.86
		c-0.03,0.21,0.13,0.41,0.34,0.44l1.38,0.18l3.27-4.83l-1.38-0.18l0.1-0.81l1.65,0.21L15.01,49.63z M14.75,52.16
		c0.02-0.14-0.11-0.33-0.31-0.44l-3.19,4.73l-0.02,0.15c-0.03,0.21,0.13,0.41,0.34,0.44l2.13,0.27c0.21,0.03,0.41-0.13,0.44-0.34
		L14.75,52.16z"/>
	<path class="st0" d="M12.49,38.47c0.26-0.62,0.96-0.9,1.57-0.64l4.42,1.87c0.62,0.26,0.9,0.96,0.64,1.57L16.8,46.8L10.16,44
		L12.49,38.47z M13.75,38.58c-0.19-0.08-0.43,0.01-0.51,0.21l-1.87,4.42c-0.08,0.19,0.01,0.43,0.21,0.51l4.42,1.87
		c0.19,0.08,0.43-0.01,0.51-0.21l1.87-4.42c0.08-0.19-0.01-0.43-0.21-0.51L13.75,38.58z"/>
	<path class="st0" d="M18.34,30.43l-3.18,4.8l1.98,1.31l2.56-3.86l0.68,0.45L17.83,37l1.98,1.31l3.18-4.8l0.67,0.45l-3.63,5.47
		l-6-3.98l3.63-5.47L18.34,30.43z"/>
	<path class="st0" d="M24.66,22.49l0.67-0.67c0.76,2.77,1.42,5.26,2.18,8.03l-0.66,0.67c-2.7-0.71-5.36-1.39-8.05-2.12l0.67-0.67
		l7.15,1.9L24.66,22.49z"/>
	<path class="st0" d="M32.85,17.6l-4.76,3.24l1.34,1.97l3.83-2.61l0.46,0.68l-3.83,2.61l1.34,1.97l4.76-3.24l0.46,0.67l-5.43,3.7
		l-4.05-5.95l5.43-3.7L32.85,17.6z"/>
	<path class="st0" d="M34.13,15.94l0.73-0.34l2.7,5.8l5.79-2.69l0.34,0.73l-6.53,3.03L34.13,15.94z"/>
	<path class="st0" d="M47.82,10.85c0.65-0.18,1.3,0.19,1.48,0.84l1.27,4.63c0.18,0.65-0.19,1.3-0.84,1.48l-4.63,1.27
		c-0.65,0.18-1.3-0.19-1.48-0.84l-1.27-4.63c-0.18-0.65,0.19-1.3,0.84-1.48L47.82,10.85z M49.51,17.01c0.2-0.06,0.33-0.28,0.27-0.48
		l-1.27-4.63c-0.06-0.2-0.28-0.33-0.48-0.27L43.4,12.9c-0.2,0.06-0.33,0.28-0.27,0.48l1.27,4.63c0.06,0.2,0.28,0.33,0.48,0.27
		L49.51,17.01z"/>
	<path class="st0" d="M56.94,9.57c0.67-0.07,1.25,0.41,1.32,1.07l0.22,2.1c0.07,0.66-0.4,1.25-1.07,1.32l-4.78,0.49
		c-0.09,0.01-0.24,0-0.39,0l0.28,2.71l-0.81,0.08l-0.73-7.15L56.94,9.57z M57.45,10.73c-0.02-0.21-0.22-0.37-0.43-0.35l-4.78,0.49
		c-0.21,0.02-0.37,0.22-0.35,0.43l0.22,2.1c0.02,0.21,0.22,0.36,0.43,0.34l4.78-0.49c0.21-0.02,0.37-0.21,0.35-0.42L57.45,10.73z"/>
	<path class="st0" d="M66.87,9.89l1.11,0.08l-0.51,7.19l-0.81-0.06l0.44-6.27l-3.56,3.67l-3.01-4.13l-0.44,6.27l-0.81-0.06l0.5-7.19
		l1.11,0.08l2.73,3.76L66.87,9.89z"/>
	<path class="st0" d="M76.17,12.72l-5.59-1.38l-0.57,2.31l4.49,1.11l-0.2,0.8l-4.49-1.11l-0.57,2.31l5.59,1.38l-0.19,0.79
		l-6.38-1.57l1.73-6.99l6.38,1.57L76.17,12.72z"/>
	<path class="st0" d="M84.1,15.06l0.74,0.32L81.98,22l-1.02-0.44l-2.36-7.86l-2.49,5.77l-0.74-0.32l2.86-6.61l1.02,0.44l2.36,7.86
		L84.1,15.06z"/>
	<path class="st0" d="M92.35,20.08l-0.44,0.68l-2.68-1.73l-3.47,5.36l-0.68-0.44l3.47-5.36l-2.69-1.74l0.44-0.68L92.35,20.08z"/>
</g>
<g>
</g>
<g>
</g>
<g>
</g>
<g>
</g>
<g>
</g>
<g>
</g>
</svg>
